<svg xmlns="http://www.w3.org/2000/svg" viewBox="0 0 30 22">
  <path d="M12.6 2.8c-1.4.7-2.5 1.4-3.3 2.1-.8.7-1.5 1.3-1.9 1.9-.5.6-.7 1.2-.9 1.8-.1.5-.2 1.1-.2 1.6 0 .9.4 1.3 1.2 1.3 3.5 0 5.2 1.6 5.2 4.9 0 1.8-.5 3.2-1.6 4.2-1 1-2.5 1.5-4.3 1.5-2.2 0-3.9-.7-5.1-2C.6 18.7 0 16.8 0 14.3c0-3.3.9-6.1 2.8-8.4C4.7 3.7 7.4 1.7 10.9 0l1.7 2.8zm17.3 0c-1.4.7-2.5 1.4-3.3 2.1-.8.7-1.5 1.3-1.9 1.9-.4.6-.7 1.2-.9 1.7-.1.5-.2 1.1-.2 1.6 0 .9.4 1.3 1.2 1.3 3.5 0 5.2 1.6 5.2 4.9 0 1.8-.5 3.2-1.6 4.2-1 1-2.5 1.5-4.3 1.5-2.2 0-4-.7-5.1-2-1.2-1.3-1.8-3.2-1.8-5.7 0-3.3.9-6.1 2.8-8.4 1.9-2.2 4.6-4.2 8.1-5.9l1.8 2.8z" id="ASSETS"/>
</svg>